<svg xmlns="http://www.w3.org/2000/svg" version="1.1" xmlns:xlink="http://www.w3.org/1999/xlink" xmlns:svgjs="http://svgjs.com/svgjs" width="1440" height="560" preserveAspectRatio="none" viewBox="0 0 1440 560"><g mask="url(&quot;#SvgjsMask1029&quot;)" fill="none"><rect width="1440" height="560" x="0" y="0" fill="#0e2a47"></rect><path d="M0,629.269C116.451,629.186,206.063,535.855,306.511,476.94C411.759,415.21,546.968,383.757,603.205,275.475C659.91,166.292,625.954,33.913,598.939,-86.114C573.588,-198.751,523.024,-300.719,452.88,-392.423C379.045,-488.953,300.298,-591.444,184.414,-628.055C67.714,-664.923,-65.831,-648.782,-173.314,-590.254C-272.922,-536.014,-314.481,-420.602,-373.932,-324.014C-423.819,-242.964,-482.203,-165.441,-492.995,-70.882C-503.618,22.198,-463.634,109.268,-433.507,197.976C-399.941,296.811,-380.789,403.761,-306.793,477.379C-224.226,559.525,-116.47,629.352,0,629.269" fill="#0a1f35"></path><path d="M1440 1046.9560000000001C1529.571 1046.413 1585.354 951.8489999999999 1660.329 902.8389999999999 1734.56 854.316 1836.372 838.29 1878.5529999999999 760.281 1921.199 681.412 1888.8319999999999 585.966 1879.909 496.751 1870.565 403.326 1890.338 293.837 1825.141 226.27300000000002 1759.968 158.733 1645.863 191.801 1556.869 161.98200000000003 1462.882 130.49 1383.423 15.673999999999978 1289.29 46.72799999999995 1194.3220000000001 78.05700000000002 1189.874 213.24099999999999 1139.545 299.655 1099.9859999999999 367.577 1042.2060000000001 423.629 1025.097 500.346 1007.142 580.858 1005.38 667.811 1040.8319999999999 742.294 1076.05 816.2860000000001 1152.809 855.8009999999999 1217.949 905.519 1289.151 959.863 1350.431 1047.499 1440 1046.9560000000001" fill="#12355a"></path></g><defs><mask id="SvgjsMask1029"><rect width="1440" height="560" fill="#ffffff"></rect></mask></defs></svg>